<svg xmlns="http://www.w3.org/2000/svg" width="805" height="600"><rect width="805" height="600" x="0" y="0" fill="#FFFFFF" id="backgorund"/><g transform="translate(20,20)" id="viz"><g id="nodes"><g transform="translate(383.5,281)"><path id="p_945.5" d="M-5.143516556418883e-14,280A280,280,0,1,1,5.143516556418883e-14,-280A280,280,0,1,1,-5.143516556418883e-14,280Z" fill="none" stroke="#ccc"/></g><g transform="translate(286.3628664288663,311.91211327559347)" id="Asia"><path id="p_744.3958698854107" d="M-2.6658275047427395e-14,145.12089018095082A145.12089018095082,145.12089018095082,0,1,1,2.6658275047427395e-14,-145.12089018095082A145.12089018095082,145.12089018095082,0,1,1,-2.6658275047427395e-14,145.12089018095082Z" fill="none" stroke="#ccc"/></g><g transform="translate(524.011570887815,311.91211327559347)" id="Africa"><path id="p_927.7076215946281" d="M-1.667673875837052e-14,90.78393743121971A90.78393743121971,90.78393743121971,0,1,1,1.667673875837052e-14,-90.78393743121971A90.78393743121971,90.78393743121971,0,1,1,-1.667673875837052e-14,90.78393743121971Z" fill="none" stroke="#ccc"/></g><g transform="translate(450.7795668031298,467.80269975283244)" id="Europe"><path id="p_999.2891798287021" d="M-1.4641922431406505e-14,79.70691327273998A79.70691327273998,79.70691327273998,0,1,1,1.4641922431406505e-14,-79.70691327273998A79.70691327273998,79.70691327273998,0,1,1,-1.4641922431406505e-14,79.70691327273998Z" fill="none" stroke="#ccc"/></g><g transform="translate(449.60654130384046,162.28670741056982)" id="South America"><path id="p_687.4698045398455" d="M-1.3699491057457996e-14,74.57655582543536A74.57655582543536,74.57655582543536,0,1,1,1.3699491057457996e-14,-74.57655582543536A74.57655582543536,74.57655582543536,0,1,1,-1.3699491057457996e-14,74.57655582543536Z" fill="none" stroke="#ccc"/></g><g transform="translate(314.9964364486606,90.79885540100355)" id="North America"><path id="p_482.8900595810331" d="M-1.3978382060112347e-14,76.09476773136898A76.09476773136898,76.09476773136898,0,1,1,1.3978382060112347e-14,-76.09476773136898A76.09476773136898,76.09476773136898,0,1,1,-1.3978382060112347e-14,76.09476773136898Z" fill="none" stroke="#ccc"/></g><g transform="translate(229.65505794648502,311.91211327559347)" id="China"><path id="p_629.2363760738699" d="M-1.5920874645958898e-14,86.66920485179145A86.66920485179145,86.66920485179145,0,1,1,1.5920874645958898e-14,-86.66920485179145A86.66920485179145,86.66920485179145,0,1,1,-1.5920874645958898e-14,86.66920485179145Z" fill="none" stroke="#ccc"/></g><g transform="translate(373.90400970404676,311.91211327559347)" id="India"><path id="p_742.6519930386326" d="M-1.0256882931802863e-14,55.83587005899227A55.83587005899227,55.83587005899227,0,1,1,1.0256882931802863e-14,-55.83587005899227A55.83587005899227,55.83587005899227,0,1,1,-1.0256882931802863e-14,55.83587005899227Z" fill="none" stroke="#ccc"/></g><g transform="translate(324.98794719747457,391.1967661526917)" id="Pakistan"><path id="p_752.7652442079838" d="M-6.5360374840484705e-15,35.58053085781748A35.58053085781748,35.58053085781748,0,1,1,6.5360374840484705e-15,-35.58053085781748A35.58053085781748,35.58053085781748,0,1,1,-6.5360374840484705e-15,35.58053085781748Z" fill="none" stroke="#ccc"/></g><g transform="translate(323.2399849055763,243.68296005335446)" id="Japan"><path id="p_595.3259066367528" d="M-5.033842395885364e-15,27.40296167782211A27.40296167782211,27.40296167782211,0,1,1,5.033842395885364e-15,-27.40296167782211A27.40296167782211,27.40296167782211,0,1,1,-5.033842395885364e-15,27.40296167782211Z" fill="none" stroke="#ccc"/></g><g transform="translate(280.766701100387,211.90360734431778)" id="Indonesia"><path id="p_517.5697430766753" d="M-4.390254918521115e-15,23.89943463197052A23.89943463197052,23.89943463197052,0,1,1,4.390254918521115e-15,-23.89943463197052A23.89943463197052,23.89943463197052,0,1,1,-4.390254918521115e-15,23.89943463197052Z" fill="none" stroke="#ccc"/></g><g transform="translate(481.2262216513944,313.8954937025345)" id="Nigeria"><path id="p_827.1298968684719" d="M-5.696110535874776e-15,31.00818151454297A31.00818151454297,31.00818151454297,0,1,1,5.696110535874776e-15,-31.00818151454297A31.00818151454297,31.00818151454297,0,1,1,-5.696110535874776e-15,31.00818151454297Z" fill="none" stroke="#ccc"/></g><g transform="translate(554.3647457966089,313.8954937025345)" id="Egypt"><path id="p_909.6467052830369" d="M-7.41887340766789e-15,40.38646578389349A40.38646578389349,40.38646578389349,0,1,1,7.41887340766789e-15,-40.38646578389349A40.38646578389349,40.38646578389349,0,1,1,-7.41887340766789e-15,40.38646578389349Z" fill="none" stroke="#ccc"/></g><g transform="translate(510.1228278316262,360.86625872075115)" id="Democratic Republic of the Congo"><path id="p_894.3847082431848" d="M-4.1140089627843644e-15,22.39562169080749A22.39562169080749,22.39562169080749,0,1,1,4.1140089627843644e-15,-22.39562169080749A22.39562169080749,22.39562169080749,0,1,1,-4.1140089627843644e-15,22.39562169080749Z" fill="none" stroke="#ccc"/></g><g transform="translate(510.5162670056347,270.8332925089826)" id="Somalia"><path id="p_801.6768629820226" d="M-3.5503680491261095e-15,19.327303467405265A19.327303467405265,19.327303467405265,0,1,1,3.5503680491261095e-15,-19.327303467405265A19.327303467405265,19.327303467405265,0,1,1,-3.5503680491261095e-15,19.327303467405265Z" fill="none" stroke="#ccc"/></g><g transform="translate(549.9297654270574,373.4787529992533)" id="Sudan"><path id="p_942.0262622863238" d="M-3.2363270439544386e-15,17.617743860013057A17.617743860013057,17.617743860013057,0,1,1,3.2363270439544386e-15,-17.617743860013057A17.617743860013057,17.617743860013057,0,1,1,-3.2363270439544386e-15,17.617743860013057Z" fill="none" stroke="#ccc"/></g><g transform="translate(545.3391890087163,255.46657942395797)" id="Angola"><path id="p_818.7973227531724" d="M-3.1212978916704513e-15,16.99155432049807A16.99155432049807,16.99155432049807,0,1,1,3.1212978916704513e-15,-16.99155432049807A16.99155432049807,16.99155432049807,0,1,1,-3.1212978916704513e-15,16.99155432049807Z" fill="none" stroke="#ccc"/></g><g transform="translate(473.51179239647803,265.4274629318718)" id="Tanzania"><path id="p_756.265322700547" d="M-2.9990499225037815e-15,16.326067372197095A16.326067372197095,16.326067372197095,0,1,1,2.9990499225037815e-15,-16.326067372197095A16.326067372197095,16.326067372197095,0,1,1,-2.9990499225037815e-15,16.326067372197095Z" fill="none" stroke="#ccc"/></g><g transform="translate(470.06511202145987,361.27084856934954)" id="Ivory Coast"><path id="p_848.2562210249606" d="M-2.9245043973413164e-15,15.920260434151139A15.920260434151139,15.920260434151139,0,1,1,2.9245043973413164e-15,-15.920260434151139A15.920260434151139,15.920260434151139,0,1,1,-2.9245043973413164e-15,15.920260434151139Z" fill="none" stroke="#ccc"/></g><g transform="translate(578.5517132348044,262.0101826288022)" id="South Africa"><path id="p_856.6774692363872" d="M-2.7766857822379066e-15,15.11557337278059A15.11557337278059,15.11557337278059,0,1,1,2.7766857822379066e-15,-15.11557337278059A15.11557337278059,15.11557337278059,0,1,1,-2.7766857822379066e-15,15.11557337278059Z" fill="none" stroke="#ccc"/></g><g transform="translate(416.01668041988944,470.67706439418237)" id="Russia"><path id="p_930.7752640456008" d="M-7.91394669439457e-15,43.081519231529A43.081519231529,43.081519231529,0,1,1,7.91394669439457e-15,-43.081519231529A43.081519231529,43.081519231529,0,1,1,-7.91394669439457e-15,43.081519231529Z" fill="none" stroke="#ccc"/></g><g transform="translate(488.7265150947213,470.67706439418237)" id="Turkey"><path id="p_988.2880180854285" d="M-5.1222882709882465e-15,27.884438596524774A27.884438596524774,27.884438596524774,0,1,1,5.1222882709882465e-15,-27.884438596524774A27.884438596524774,27.884438596524774,0,1,1,-5.1222882709882465e-15,27.884438596524774Z" fill="none" stroke="#ccc"/></g><g transform="translate(464.813450659434,516.7724872950291)" id="United Kingdom"><path id="p_1004.8866381295418" d="M-4.096572163223235e-15,22.30070017507866A22.30070017507866,22.30070017507866,0,1,1,4.096572163223235e-15,-22.30070017507866A22.30070017507866,22.30070017507866,0,1,1,-4.096572163223235e-15,22.30070017507866Z" fill="none" stroke="#ccc"/></g><g transform="translate(463.2703219184643,434.1212675672363)" id="Germany"><path id="p_913.3092508829596" d="M-2.7403299421375935e-15,14.91766139725902A14.91766139725902,14.91766139725902,0,1,1,2.7403299421375935e-15,-14.91766139725902A14.91766139725902,14.91766139725902,0,1,1,-2.7403299421375935e-15,14.91766139725902Z" fill="none" stroke="#ccc"/></g><g transform="translate(438.2940730676587,416.0580901430968)" id="Spain"><path id="p_869.5141774114531" d="M-2.601519804054551e-15,14.162014200697598A14.162014200697598,14.162014200697598,0,1,1,2.601519804054551e-15,-14.162014200697598A14.162014200697598,14.162014200697598,0,1,1,-2.601519804054551e-15,14.162014200697598Z" fill="none" stroke="#ccc"/></g><g transform="translate(428.75250367067196,527.7484572191556)" id="Ukraine"><path id="p_971.150731103354" d="M-2.5074221101638035e-15,13.649770213526429A13.649770213526429,13.649770213526429,0,1,1,2.5074221101638035e-15,-13.649770213526429A13.649770213526429,13.649770213526429,0,1,1,-2.5074221101638035e-15,13.649770213526429Z" fill="none" stroke="#ccc"/></g><g transform="translate(492.81165348803165,427.6653015117367)" id="Italy"><path id="p_935.053964482315" d="M-2.494056180719096e-15,13.577009482546616A13.577009482546616,13.577009482546616,0,1,1,2.494056180719096e-15,-13.577009482546616A13.577009482546616,13.577009482546616,0,1,1,-2.494056180719096e-15,13.577009482546616Z" fill="none" stroke="#ccc"/></g><g transform="translate(500.55473466500786,510.7915526331759)" id="France"><path id="p_1024.5399630183738" d="M-2.2399418910856966e-15,12.193675720189862A12.193675720189862,12.193675720189862,0,1,1,2.2399418910856966e-15,-12.193675720189862A12.193675720189862,12.193675720189862,0,1,1,-2.2399418910856966e-15,12.193675720189862Z" fill="none" stroke="#ccc"/></g><g transform="translate(410.9380795021429,414.5917628962915)" id="Belarus"><path id="p_838.0192155320406" d="M-2.1105636048420597e-15,11.489373133606176A11.489373133606176,11.489373133606176,0,1,1,2.1105636048420597e-15,-11.489373133606176A11.489373133606176,11.489373133606176,0,1,1,-2.1105636048420597e-15,11.489373133606176Z" fill="none" stroke="#ccc"/></g><g transform="translate(423.82742282407855,161.55641184293094)" id="Brazil"><path id="p_633.4270529841928" d="M-8.641699010059296e-15,47.04321831718328A47.04321831718328,47.04321831718328,0,1,1,8.641699010059296e-15,-47.04321831718328A47.04321831718328,47.04321831718328,0,1,1,-8.641699010059296e-15,47.04321831718328Z" fill="none" stroke="#ccc"/></g><g transform="translate(495.1751052543829,161.55641184293094)" id="Peru"><path id="p_680.2921043636568" d="M-4.144312647391727e-15,22.56058726634302A22.56058726634302,22.56058726634302,0,1,1,4.144312647391727e-15,-22.56058726634302A22.56058726634302,22.56058726634302,0,1,1,-4.144312647391727e-15,22.56058726634302Z" fill="none" stroke="#ccc"/></g><g transform="translate(479.3561100731504,204.3459412456727)" id="Colombia"><path id="p_706.0175875898752" d="M-3.915600489967986e-15,21.315536271052085A21.315536271052085,21.315536271052085,0,1,1,3.915600489967986e-15,-21.315536271052085A21.315536271052085,21.315536271052085,0,1,1,-3.915600489967986e-15,21.315536271052085Z" fill="none" stroke="#ccc"/></g><g transform="translate(478.26101337221695,122.64492274975642)" id="Chile"><path id="p_620.0301237390993" d="M-3.3293592528689044e-15,18.12418761712593A18.12418761712593,18.12418761712593,0,1,1,3.3293592528689044e-15,-18.12418761712593A18.12418761712593,18.12418761712593,0,1,1,-3.3293592528689044e-15,18.12418761712593Z" fill="none" stroke="#ccc"/></g><g transform="translate(449.5966537000026,103.8582034094837)" id="Venezuela"><path id="p_568.8590312504392" d="M-2.646003863411861e-15,14.404174140952923A14.404174140952923,14.404174140952923,0,1,1,2.646003863411861e-15,-14.404174140952923A14.404174140952923,14.404174140952923,0,1,1,-2.646003863411861e-15,14.404174140952923Z" fill="none" stroke="#ccc"/></g><g transform="translate(445.9493388146795,220.25572551710889)" id="Argentina"><path id="p_681.14745659531" d="M-2.561175908696784e-15,13.94239226352161A13.94239226352161,13.94239226352161,0,1,1,2.561175908696784e-15,-13.94239226352161A13.94239226352161,13.94239226352161,0,1,1,-2.561175908696784e-15,13.94239226352161Z" fill="none" stroke="#ccc"/></g><g transform="translate(281.6228053074324,90.79885540100355)" id="United States"><path id="p_414.39892045179863" d="M-7.52740049738083e-15,40.97725974336274A40.97725974336274,40.97725974336274,0,1,1,7.52740049738083e-15,-40.97725974336274A40.97725974336274,40.97725974336274,0,1,1,-7.52740049738083e-15,40.97725974336274Z" fill="none" stroke="#ccc"/></g><g transform="translate(356.84563461541234,90.79885540100355)" id="Mexico"><path id="p_481.14618273425504" d="M-5.970464093065881e-15,32.50169271783914A32.50169271783914,32.50169271783914,0,1,1,5.970464093065881e-15,-32.50169271783914A32.50169271783914,32.50169271783914,0,1,1,-5.970464093065881e-15,32.50169271783914Z" fill="none" stroke="#ccc"/></g><g transform="translate(326.2284582765513,139.86827732991148)" id="Canada"><path id="p_490.68903992567795" d="M-4.33383599535558e-15,23.592304319215224A23.592304319215224,23.592304319215224,0,1,1,4.33383599535558e-15,-23.592304319215224A23.592304319215224,23.592304319215224,0,1,1,-4.33383599535558e-15,23.592304319215224Z" fill="none" stroke="#ccc"/></g><g transform="translate(324.9111854562799,57.48650674356708)" id="Cuba"><path id="p_395.29886267363145" d="M-2.1862095490240723e-15,11.901170473784477A11.901170473784477,11.901170473784477,0,1,1,2.1862095490240723e-15,-11.901170473784477A11.901170473784477,11.901170473784477,0,1,1,-2.1862095490240723e-15,11.901170473784477Z" fill="none" stroke="#ccc"/></g><g transform="translate(213.66579995213078,313.9590326780003)" id="Shanghai"><path id="p_563.0020114474705" d="M-6.314985300355648e-15,34.377178817339484A34.377178817339484,34.377178817339484,0,1,1,6.314985300355648e-15,-34.377178817339484A34.377178817339484,34.377178817339484,0,1,1,-6.314985300355648e-15,34.377178817339484Z" fill="rgb(156, 18, 111)" stroke="none"/></g><g transform="translate(282.16367982787904,313.9590326780003)" id="Beijing"><path id="p_629.49953671751" d="M-5.9475261205995025e-15,32.37682421163066A32.37682421163066,32.37682421163066,0,1,1,5.9475261205995025e-15,-32.37682421163066A32.37682421163066,32.37682421163066,0,1,1,-5.9475261205995025e-15,32.37682421163066Z" fill="rgb(168, 45, 128)" stroke="none"/></g><g transform="translate(249.73508406676945,366.01861620460045)" id="Tianjin"><path id="p_643.9666283245709" d="M-4.998933785366986e-15,27.212928053201075A27.212928053201075,27.212928053201075,0,1,1,4.998933785366986e-15,-27.212928053201075A27.212928053201075,27.212928053201075,0,1,1,-4.998933785366986e-15,27.212928053201075Z" fill="rgb(194, 109, 167)" stroke="none"/></g><g transform="translate(249.6775978422479,264.2712692417607)" id="Guangzhou"><path id="p_540.1933019057851" d="M-4.637327445115879e-15,25.244434821776466A25.244434821776466,25.244434821776466,0,1,1,4.637327445115879e-15,-25.244434821776466A25.244434821776466,25.244434821776466,0,1,1,-4.637327445115879e-15,25.244434821776466Z" fill="rgb(203, 130, 180)" stroke="none"/></g><g transform="translate(200.68710136095808,256.708127470623)" id="Shenzhen"><path id="p_480.97777411480416" d="M-4.148346269654894e-15,22.582545283223073A22.582545283223073,22.582545283223073,0,1,1,4.148346269654894e-15,-22.582545283223073A22.582545283223073,22.582545283223073,0,1,1,-4.148346269654894e-15,22.582545283223073Z" fill="rgb(214, 156, 196)" stroke="none"/></g><g transform="translate(348.41110531696137,311.91211327559347)" id="Delhi"><path id="p_689.9223074176837" d="M-5.2535673882337266e-15,28.59908882512882A28.59908882512882,28.59908882512882,0,1,1,5.2535673882337266e-15,-28.59908882512882A28.59908882512882,28.59908882512882,0,1,1,-5.2535673882337266e-15,28.59908882512882Z" fill="rgb(188, 93, 157)" stroke="none"/></g><g transform="translate(403.3750369525646,311.91211327559347)" id="Mumbai"><path id="p_740.9081161918543" d="M-4.5227980739035e-15,24.620965963696356A24.620965963696356,24.620965963696356,0,1,1,4.5227980739035e-15,-24.620965963696356A24.620965963696356,24.620965963696356,0,1,1,-4.5227980739035e-15,24.620965963696356Z" fill="rgb(206, 136, 184)" stroke="none"/></g><g transform="translate(324.98794719747457,391.1967661526917)" id="Karachi"><path id="p_751.0213673612056" d="M-6.21569250427138e-15,33.836654011039414A33.836654011039414,33.836654011039414,0,1,1,6.21569250427138e-15,-33.836654011039414A33.836654011039414,33.836654011039414,0,1,1,-6.21569250427138e-15,33.836654011039414Z" fill="rgb(159, 26, 116)" stroke="none"/></g><g transform="translate(323.2399849055763,243.68296005335446)" id="Tokyo"><path id="p_593.5820297899749" d="M-4.713497416108275e-15,25.65908483104405A25.65908483104405,25.65908483104405,0,1,1,4.713497416108275e-15,-25.65908483104405A25.65908483104405,25.65908483104405,0,1,1,-4.713497416108275e-15,25.65908483104405Z" fill="rgb(201, 125, 177)" stroke="none"/></g><g transform="translate(280.766701100387,211.90360734431778)" id="Jakarta"><path id="p_515.8258662298973" d="M-4.069909938744025e-15,22.15555778519246A22.15555778519246,22.15555778519246,0,1,1,4.069909938744025e-15,-22.15555778519246A22.15555778519246,22.15555778519246,0,1,1,-4.069909938744025e-15,22.15555778519246Z" fill="rgb(216, 160, 199)" stroke="none"/></g><g transform="translate(481.2262216513944,313.8954937025345)" id="Lagos"><path id="p_825.3860200216939" d="M-5.375765556097685e-15,29.264304667764904A29.264304667764904,29.264304667764904,0,1,1,5.375765556097685e-15,-29.264304667764904A29.264304667764904,29.264304667764904,0,1,1,-5.375765556097685e-15,29.264304667764904Z" fill="rgb(184, 85, 152)" stroke="none"/></g><g transform="translate(538.8731465634838,313.8954937025345)" id="Cairo"><path id="p_876.9196299700087" d="M-4.252767815712779e-15,23.150989703990415A23.150989703990415,23.150989703990415,0,1,1,4.252767815712779e-15,-23.150989703990415A23.150989703990415,23.150989703990415,0,1,1,-4.252767815712779e-15,23.150989703990415Z" fill="rgb(212, 151, 193)" stroke="none"/></g><g transform="translate(578.3876739239884,313.8954937025345)" id="Alexandria"><path id="p_907.9028284362588" d="M-2.6855881222894758e-15,14.619660809735983A14.619660809735983,14.619660809735983,0,1,1,2.6855881222894758e-15,-14.619660809735983A14.619660809735983,14.619660809735983,0,1,1,-2.6855881222894758e-15,14.619660809735983Z" fill="rgb(240, 217, 234)" stroke="none"/></g><g transform="translate(510.1228278316262,360.86625872075115)" id="Kinshasa-Brazzaville"><path id="p_892.6408313964067" d="M-3.793663983007275e-15,20.651744844029434A20.651744844029434,20.651744844029434,0,1,1,3.793663983007275e-15,-20.651744844029434A20.651744844029434,20.651744844029434,0,1,1,-3.793663983007275e-15,20.651744844029434Z" fill="rgb(222, 173, 207)" stroke="none"/></g><g transform="translate(510.5162670056347,270.8332925089826)" id="Mogadishu"><path id="p_799.9329861352445" d="M-3.2300230693490204e-15,17.583426620627208A17.583426620627208,17.583426620627208,0,1,1,3.2300230693490204e-15,-17.583426620627208A17.583426620627208,17.583426620627208,0,1,1,-3.2300230693490204e-15,17.583426620627208Z" fill="rgb(232, 197, 222)" stroke="none"/></g><g transform="translate(549.9297654270574,373.4787529992533)" id="Khartoum-Omdurman"><path id="p_940.2823854395457" d="M-2.9159820641773495e-15,15.873867013235A15.873867013235,15.873867013235,0,1,1,2.9159820641773495e-15,-15.873867013235A15.873867013235,15.873867013235,0,1,1,-2.9159820641773495e-15,15.873867013235Z" fill="rgb(237, 209, 229)" stroke="none"/></g><g transform="translate(545.3391890087163,255.46657942395797)" id="Luanda"><path id="p_817.0534459063944" d="M-2.8009529118933618e-15,15.247677473720012A15.247677473720012,15.247677473720012,0,1,1,2.8009529118933618e-15,-15.247677473720012A15.247677473720012,15.247677473720012,0,1,1,-2.8009529118933618e-15,15.247677473720012Z" fill="rgb(238, 213, 231)" stroke="none"/></g><g transform="translate(473.51179239647803,265.4274629318718)" id="Dar es Salaam"><path id="p_754.5214458537689" d="M-2.6787049427266924e-15,14.582190525419037A14.582190525419037,14.582190525419037,0,1,1,2.6787049427266924e-15,-14.582190525419037A14.582190525419037,14.582190525419037,0,1,1,-2.6787049427266924e-15,14.582190525419037Z" fill="rgb(240, 217, 234)" stroke="none"/></g><g transform="translate(470.06511202145987,361.27084856934954)" id="Abidjan"><path id="p_846.5123441781825" d="M-2.6041594175642265e-15,14.176383587373078A14.176383587373078,14.176383587373078,0,1,1,2.6041594175642265e-15,-14.176383587373078A14.176383587373078,14.176383587373078,0,1,1,-2.6041594175642265e-15,14.176383587373078Z" fill="rgb(241, 219, 235)" stroke="none"/></g><g transform="translate(578.5517132348044,262.0101826288022)" id="Greater Johannesburg"><path id="p_854.9335923896092" d="M-2.4563408024608163e-15,13.371696526002527A13.371696526002527,13.371696526002527,0,1,1,2.4563408024608163e-15,-13.371696526002527A13.371696526002527,13.371696526002527,0,1,1,-2.4563408024608163e-15,13.371696526002527Z" fill="rgb(243, 224, 238)" stroke="none"/></g><g transform="translate(399.18869521722127,470.67706439418237)" id="Moscow"><path id="p_895.3754167934864" d="M-4.5023509824354875e-15,24.509657182082755A24.509657182082755,24.509657182082755,0,1,1,4.5023509824354875e-15,-24.509657182082755A24.509657182082755,24.509657182082755,0,1,1,-4.5023509824354875e-15,24.509657182082755Z" fill="rgb(206, 137, 185)" stroke="none"/></g><g transform="translate(441.3982760253612,470.67706439418237)" id="Saint Petersburg"><path id="p_929.0313871988228" d="M-2.931078242293446e-15,15.956046779279147A15.956046779279147,15.956046779279147,0,1,1,2.931078242293446e-15,-15.956046779279147A15.956046779279147,15.956046779279147,0,1,1,-2.931078242293446e-15,15.956046779279147Z" fill="rgb(237, 208, 228)" stroke="none"/></g><g transform="translate(488.7265150947213,470.67706439418237)" id="Istanbul"><path id="p_986.5441412386504" d="M-4.8019432912111566e-15,26.140561749746713A26.140561749746713,26.140561749746713,0,1,1,4.8019432912111566e-15,-26.140561749746713A26.140561749746713,26.140561749746713,0,1,1,-4.8019432912111566e-15,26.140561749746713Z" fill="rgb(199, 120, 174)" stroke="none"/></g><g transform="translate(464.813450659434,516.7724872950291)" id="London"><path id="p_1003.1427612827638" d="M-3.776227183446146e-15,20.556823328300602A20.556823328300602,20.556823328300602,0,1,1,3.776227183446146e-15,-20.556823328300602A20.556823328300602,20.556823328300602,0,1,1,-3.776227183446146e-15,20.556823328300602Z" fill="rgb(222, 174, 207)" stroke="none"/></g><g transform="translate(463.2703219184643,434.1212675672363)" id="Berlin"><path id="p_911.5653740361815" d="M-2.419984962360503e-15,13.173784550480956A13.173784550480956,13.173784550480956,0,1,1,2.419984962360503e-15,-13.173784550480956A13.173784550480956,13.173784550480956,0,1,1,-2.419984962360503e-15,13.173784550480956Z" fill="rgb(244, 225, 239)" stroke="none"/></g><g transform="translate(438.2940730676587,416.0580901430968)" id="Madrid"><path id="p_867.770300564675" d="M-2.2811748242774613e-15,12.418137353919537A12.418137353919537,12.418137353919537,0,1,1,2.2811748242774613e-15,-12.418137353919537A12.418137353919537,12.418137353919537,0,1,1,-2.2811748242774613e-15,12.418137353919537Z" fill="rgb(245, 229, 241)" stroke="none"/></g><g transform="translate(428.75250367067196,527.7484572191556)" id="Kiev"><path id="p_969.406854256576" d="M-2.187077130386714e-15,11.905893366748368A11.905893366748368,11.905893366748368,0,1,1,2.187077130386714e-15,-11.905893366748368A11.905893366748368,11.905893366748368,0,1,1,-2.187077130386714e-15,11.905893366748368Z" fill="rgb(246, 232, 243)" stroke="none"/></g><g transform="translate(492.81165348803165,427.6653015117367)" id="Rome"><path id="p_933.310087635537" d="M-2.1737112009420066e-15,11.833132635768555A11.833132635768555,11.833132635768555,0,1,1,2.1737112009420066e-15,-11.833132635768555A11.833132635768555,11.833132635768555,0,1,1,-2.1737112009420066e-15,11.833132635768555Z" fill="rgb(246, 232, 243)" stroke="none"/></g><g transform="translate(500.55473466500786,510.7915526331759)" id="Paris"><path id="p_1022.7960861715957" d="M-1.9195969113086067e-15,10.449798873411801A10.449798873411801,10.449798873411801,0,1,1,1.9195969113086067e-15,-10.449798873411801A10.449798873411801,10.449798873411801,0,1,1,-1.9195969113086067e-15,10.449798873411801Z" fill="rgb(249, 238, 247)" stroke="none"/></g><g transform="translate(410.9380795021429,414.5917628962915)" id="Minsk"><path id="p_836.2753386852626" d="M-1.7902186250649694e-15,9.745496286828113A9.745496286828113,9.745496286828113,0,1,1,1.7902186250649694e-15,-9.745496286828113A9.745496286828113,9.745496286828113,0,1,1,-1.7902186250649694e-15,9.745496286828113Z" fill="rgb(250, 241, 249)" stroke="none"/></g><g transform="translate(407.223108153062,166.70666826081077)" id="São Paulo"><path id="p_599.0766603431883" d="M-4.435710617012846e-15,24.146883929315567A24.146883929315567,24.146883929315567,0,1,1,4.435710617012846e-15,-24.146883929315567A24.146883929315567,24.146883929315567,0,1,1,-4.435710617012846e-15,24.146883929315567Z" fill="rgb(208, 141, 187)" stroke="none"/></g><g transform="translate(450.87734914402205,166.70666826081077)" id="Rio de Janeiro"><path id="p_636.3474976196992" d="M-3.2630983780280193e-15,17.76348021486639A17.76348021486639,17.76348021486639,0,1,1,3.2630983780280193e-15,-17.76348021486639A17.76348021486639,17.76348021486639,0,1,1,-3.2630983780280193e-15,17.76348021486639Z" fill="rgb(231, 196, 221)" stroke="none"/></g><g transform="translate(434.1138531098092,193.30116392519562)" id="Salvador"><path id="p_640.3446127349125" d="M-2.1914311783520802e-15,11.929595699907598A11.929595699907598,11.929595699907598,0,1,1,2.1914311783520802e-15,-11.929595699907598A11.929595699907598,11.929595699907598,0,1,1,-2.1914311783520802e-15,11.929595699907598Z" fill="rgb(246, 231, 243)" stroke="none"/></g><g transform="translate(434.11198382267827,140.12846405630955)" id="Brasília"><path id="p_587.1572600680059" d="M-2.1890828854981688e-15,11.916812189018057A11.916812189018057,11.916812189018057,0,1,1,2.1890828854981688e-15,-11.916812189018057A11.916812189018057,11.916812189018057,0,1,1,-2.1890828854981688e-15,11.916812189018057Z" fill="rgb(246, 232, 243)" stroke="none"/></g><g transform="translate(411.449254343124,129.8214521211289)" id="Fortaleza"><path id="p_553.5064790745505" d="M-2.0639779444722655e-15,11.235772610297584A11.235772610297584,11.235772610297584,0,1,1,2.0639779444722655e-15,-11.235772610297584A11.235772610297584,11.235772610297584,0,1,1,-2.0639779444722655e-15,11.235772610297584Z" fill="rgb(248, 235, 245)" stroke="none"/></g><g transform="translate(495.1751052543829,161.55641184293094)" id="Lima"><path id="p_678.5482275168788" d="M-3.823967667614637e-15,20.81671041956496A20.81671041956496,20.81671041956496,0,1,1,3.823967667614637e-15,-20.81671041956496A20.81671041956496,20.81671041956496,0,1,1,-3.823967667614637e-15,20.81671041956496Z" fill="rgb(221, 172, 206)" stroke="none"/></g><g transform="translate(479.3561100731504,204.3459412456727)" id="Bogotá"><path id="p_704.2737107430971" d="M-3.595255510190897e-15,19.571659424274028A19.571659424274028,19.571659424274028,0,1,1,3.595255510190897e-15,-19.571659424274028A19.571659424274028,19.571659424274028,0,1,1,-3.595255510190897e-15,19.571659424274028Z" fill="rgb(225, 182, 212)" stroke="none"/></g><g transform="translate(478.26101337221695,122.64492274975642)" id="Santiago"><path id="p_618.2862468923212" d="M-3.009014273091815e-15,16.38031077034787A16.38031077034787,16.38031077034787,0,1,1,3.009014273091815e-15,-16.38031077034787A16.38031077034787,16.38031077034787,0,1,1,-3.009014273091815e-15,16.38031077034787Z" fill="rgb(235, 206, 227)" stroke="none"/></g><g transform="translate(449.5966537000026,103.8582034094837)" id="Caracas"><path id="p_567.1151544036611" d="M-2.325658883634771e-15,12.660297294174862A12.660297294174862,12.660297294174862,0,1,1,2.325658883634771e-15,-12.660297294174862A12.660297294174862,12.660297294174862,0,1,1,-2.325658883634771e-15,12.660297294174862Z" fill="rgb(245, 228, 240)" stroke="none"/></g><g transform="translate(445.9493388146795,220.25572551710889)" id="Buenos Aires"><path id="p_679.403579748532" d="M-2.2408309289196936e-15,12.198515416743547A12.198515416743547,12.198515416743547,0,1,1,2.2408309289196936e-15,-12.198515416743547A12.198515416743547,12.198515416743547,0,1,1,-2.2408309289196936e-15,12.198515416743547Z" fill="rgb(246, 230, 242)" stroke="none"/></g><g transform="translate(267.5185620747336,92.77889610964309)" id="New York City"><path id="p_381.7076376060911" d="M-3.7492891348238576e-15,20.410179421714403A20.410179421714403,20.410179421714403,0,1,1,3.7492891348238576e-15,-20.410179421714403A20.410179421714403,20.410179421714403,0,1,1,-3.7492891348238576e-15,20.410179421714403Z" fill="rgb(222, 175, 208)" stroke="none"/></g><g transform="translate(303.5834054124121,92.77889610964309)" id="Los Angeles"><path id="p_411.2730885912413" d="M-2.5553701286848662e-15,13.910787069186068A13.910787069186068,13.910787069186068,0,1,1,2.5553701286848662e-15,-13.910787069186068A13.910787069186068,13.910787069186068,0,1,1,-2.5553701286848662e-15,13.910787069186068Z" fill="rgb(242, 221, 236)" stroke="none"/></g><g transform="translate(291.0325867452715,116.8734773957511)" id="Chicago"><path id="p_420.41887888187" d="M-2.1148697582332896e-15,11.512814740847427A11.512814740847427,11.512814740847427,0,1,1,2.1148697582332896e-15,-11.512814740847427A11.512814740847427,11.512814740847427,0,1,1,-2.1148697582332896e-15,11.512814740847427Z" fill="rgb(247, 233, 244)" stroke="none"/></g><g transform="translate(290.8639314236802,69.83738903295077)" id="Houston"><path id="p_372.27827420904464" d="M-1.942954883643454e-15,10.576953752413703A10.576953752413703,10.576953752413703,0,1,1,1.942954883643454e-15,-10.576953752413703A10.576953752413703,10.576953752413703,0,1,1,-1.942954883643454e-15,10.576953752413703Z" fill="rgb(249, 238, 247)" stroke="none"/></g><g transform="translate(271.27136347842236,62.114880690743256)" id="Philadelphia"><path id="p_343.124992240617" d="M-1.6052819781387124e-15,8.738748071451417A8.738748071451417,8.738748071451417,0,1,1,1.6052819781387124e-15,-8.738748071451417A8.738748071451417,8.738748071451417,0,1,1,-1.6052819781387124e-15,8.738748071451417Z" fill="rgb(252, 245, 251)" stroke="none"/></g><g transform="translate(346.932876991812,90.79885540100355)" id="Mexico City"><path id="p_459.57679064027633" d="M-3.829175079118945e-15,20.845058247460766A20.845058247460766,20.845058247460766,0,1,1,3.829175079118945e-15,-20.845058247460766A20.845058247460766,20.845058247460766,0,1,1,-3.829175079118945e-15,20.845058247460766Z" fill="rgb(221, 171, 206)" stroke="none"/></g><g transform="translate(378.5626312862621,90.79885540100355)" id="Ecatepec de Morelos"><path id="p_479.4023058874769" d="M-1.6607715442813018e-15,9.040819200211281A9.040819200211281,9.040819200211281,0,1,1,1.6607715442813018e-15,-9.040819200211281A9.040819200211281,9.040819200211281,0,1,1,-1.6607715442813018e-15,9.040819200211281Z" fill="rgb(252, 244, 250)" stroke="none"/></g><g transform="translate(316.1148883186215,139.86827732991148)" id="Toronto"><path id="p_468.7180231630404" d="M-2.1556583540387567e-15,11.734857514507368A11.734857514507368,11.734857514507368,0,1,1,2.1556583540387567e-15,-11.734857514507368A11.734857514507368,11.734857514507368,0,1,1,-2.1556583540387567e-15,11.734857514507368Z" fill="rgb(247, 232, 243)" stroke="none"/></g><g transform="translate(338.8352542144477,139.86827732991148)" id="Montreal"><path id="p_488.94516307889995" d="M-1.697660171651188e-15,9.241631534540764A9.241631534540764,9.241631534540764,0,1,1,1.697660171651188e-15,-9.241631534540764A9.241631534540764,9.241631534540764,0,1,1,-1.697660171651188e-15,9.241631534540764Z" fill="rgb(251, 243, 250)" stroke="none"/></g><g transform="translate(324.9111854562799,57.48650674356708)" id="Havana"><path id="p_393.5549858268534" d="M-1.865864569246982e-15,10.157293627006414A10.157293627006414,10.157293627006414,0,1,1,1.865864569246982e-15,-10.157293627006414A10.157293627006414,10.157293627006414,0,1,1,-1.865864569246982e-15,10.157293627006414Z" fill="rgb(250, 239, 248)" stroke="none"/></g></g><g id="labels"><g transform="translate(213.66579995213078,313.9590326780003)"><text text-anchor="middle" dominant-baseline="text-before-edge" transform="translate(0,-5.55224609375)" style="stroke-width: 2px; paint-order: stroke; stroke: white; stroke-linecap: round; stroke-linejoin: round; opacity: 1;"><tspan x="0" y="0" dy="0" style="font-family: Arial, sans-serif; font-size: 10px; fill: black; font-weight: normal;">Shanghai</tspan></text></g><g transform="translate(282.16367982787904,313.9590326780003)"><text text-anchor="middle" dominant-baseline="text-before-edge" transform="translate(0,-5.55224609375)" style="stroke-width: 2px; paint-order: stroke; stroke: white; stroke-linecap: round; stroke-linejoin: round; opacity: 1;"><tspan x="0" y="0" dy="0" style="font-family: Arial, sans-serif; font-size: 10px; fill: black; font-weight: normal;">Beijing</tspan></text></g><g transform="translate(249.73508406676945,366.01861620460045)"><text text-anchor="middle" dominant-baseline="text-before-edge" transform="translate(0,-5.55224609375)" style="stroke-width: 2px; paint-order: stroke; stroke: white; stroke-linecap: round; stroke-linejoin: round; opacity: 1;"><tspan x="0" y="0" dy="0" style="font-family: Arial, sans-serif; font-size: 10px; fill: black; font-weight: normal;">Tianjin</tspan></text></g><g transform="translate(249.6775978422479,264.2712692417607)"><text text-anchor="middle" dominant-baseline="text-before-edge" transform="translate(0,-5.55224609375)" style="stroke-width: 2px; paint-order: stroke; stroke: white; stroke-linecap: round; stroke-linejoin: round; opacity: 1;"><tspan x="0" y="0" dy="0" style="font-family: Arial, sans-serif; font-size: 10px; fill: black; font-weight: normal;">Guangzhou</tspan></text></g><g transform="translate(200.68710136095808,256.708127470623)"><text text-anchor="middle" dominant-baseline="text-before-edge" transform="translate(0,-5.55224609375)" style="stroke-width: 2px; paint-order: stroke; stroke: white; stroke-linecap: round; stroke-linejoin: round; opacity: 1;"><tspan x="0" y="0" dy="0" style="font-family: Arial, sans-serif; font-size: 10px; fill: black; font-weight: normal;">Shenzhen</tspan></text></g><g transform="translate(348.41110531696137,311.91211327559347)"><text text-anchor="middle" dominant-baseline="text-before-edge" transform="translate(0,-5.55224609375)" style="stroke-width: 2px; paint-order: stroke; stroke: white; stroke-linecap: round; stroke-linejoin: round; opacity: 1;"><tspan x="0" y="0" dy="0" style="font-family: Arial, sans-serif; font-size: 10px; fill: black; font-weight: normal;">Delhi</tspan></text></g><g transform="translate(403.3750369525646,311.91211327559347)"><text text-anchor="middle" dominant-baseline="text-before-edge" transform="translate(0,-5.55224609375)" style="stroke-width: 2px; paint-order: stroke; stroke: white; stroke-linecap: round; stroke-linejoin: round; opacity: 1;"><tspan x="0" y="0" dy="0" style="font-family: Arial, sans-serif; font-size: 10px; fill: black; font-weight: normal;">Mumbai</tspan></text></g><g transform="translate(324.98794719747457,391.1967661526917)"><text text-anchor="middle" dominant-baseline="text-before-edge" transform="translate(0,-5.55224609375)" style="stroke-width: 2px; paint-order: stroke; stroke: white; stroke-linecap: round; stroke-linejoin: round; opacity: 1;"><tspan x="0" y="0" dy="0" style="font-family: Arial, sans-serif; font-size: 10px; fill: black; font-weight: normal;">Karachi</tspan></text></g><g transform="translate(323.2399849055763,243.68296005335446)"><text text-anchor="middle" dominant-baseline="text-before-edge" transform="translate(0,-5.55224609375)" style="stroke-width: 2px; paint-order: stroke; stroke: white; stroke-linecap: round; stroke-linejoin: round; opacity: 1;"><tspan x="0" y="0" dy="0" style="font-family: Arial, sans-serif; font-size: 10px; fill: black; font-weight: normal;">Tokyo</tspan></text></g><g transform="translate(280.766701100387,211.90360734431778)"><text text-anchor="middle" dominant-baseline="text-before-edge" transform="translate(0,-5.55224609375)" style="stroke-width: 2px; paint-order: stroke; stroke: white; stroke-linecap: round; stroke-linejoin: round; opacity: 1;"><tspan x="0" y="0" dy="0" style="font-family: Arial, sans-serif; font-size: 10px; fill: black; font-weight: normal;">Jakarta</tspan></text></g><g transform="translate(481.2262216513944,313.8954937025345)"><text text-anchor="middle" dominant-baseline="text-before-edge" transform="translate(0,-5.55224609375)" style="stroke-width: 2px; paint-order: stroke; stroke: white; stroke-linecap: round; stroke-linejoin: round; opacity: 1;"><tspan x="0" y="0" dy="0" style="font-family: Arial, sans-serif; font-size: 10px; fill: black; font-weight: normal;">Lagos</tspan></text></g><g transform="translate(538.8731465634838,313.8954937025345)"><text text-anchor="middle" dominant-baseline="text-before-edge" transform="translate(0,-5.55224609375)" style="stroke-width: 2px; paint-order: stroke; stroke: white; stroke-linecap: round; stroke-linejoin: round; opacity: 1;"><tspan x="0" y="0" dy="0" style="font-family: Arial, sans-serif; font-size: 10px; fill: black; font-weight: normal;">Cairo</tspan></text></g><g transform="translate(578.3876739239884,313.8954937025345)"><text text-anchor="middle" dominant-baseline="text-before-edge" transform="translate(0,-5.55224609375)" style="stroke-width: 2px; paint-order: stroke; stroke: white; stroke-linecap: round; stroke-linejoin: round; opacity: 1;"><tspan x="0" y="0" dy="0" style="font-family: Arial, sans-serif; font-size: 10px; fill: black; font-weight: normal;">Alexandria</tspan></text></g><g transform="translate(510.1228278316262,360.86625872075115)"><text text-anchor="middle" dominant-baseline="text-before-edge" transform="translate(0,-5.55224609375)" style="stroke-width: 2px; paint-order: stroke; stroke: white; stroke-linecap: round; stroke-linejoin: round; opacity: 1;"><tspan x="0" y="0" dy="0" style="font-family: Arial, sans-serif; font-size: 10px; fill: black; font-weight: normal;">Kinshasa-Brazzaville</tspan></text></g><g transform="translate(510.5162670056347,270.8332925089826)"><text text-anchor="middle" dominant-baseline="text-before-edge" transform="translate(0,-5.55224609375)" style="stroke-width: 2px; paint-order: stroke; stroke: white; stroke-linecap: round; stroke-linejoin: round; opacity: 1;"><tspan x="0" y="0" dy="0" style="font-family: Arial, sans-serif; font-size: 10px; fill: black; font-weight: normal;">Mogadishu</tspan></text></g><g transform="translate(549.9297654270574,373.4787529992533)"><text text-anchor="middle" dominant-baseline="text-before-edge" transform="translate(0,-5.55224609375)" style="stroke-width: 2px; paint-order: stroke; stroke: white; stroke-linecap: round; stroke-linejoin: round; opacity: 1;"><tspan x="0" y="0" dy="0" style="font-family: Arial, sans-serif; font-size: 10px; fill: black; font-weight: normal;">Khartoum-Omdurman</tspan></text></g><g transform="translate(545.3391890087163,255.46657942395797)"><text text-anchor="middle" dominant-baseline="text-before-edge" transform="translate(0,-5.55224609375)" style="stroke-width: 2px; paint-order: stroke; stroke: white; stroke-linecap: round; stroke-linejoin: round; opacity: 1;"><tspan x="0" y="0" dy="0" style="font-family: Arial, sans-serif; font-size: 10px; fill: black; font-weight: normal;">Luanda</tspan></text></g><g transform="translate(473.51179239647803,265.4274629318718)"><text text-anchor="middle" dominant-baseline="text-before-edge" transform="translate(0,-5.55224609375)" style="stroke-width: 2px; paint-order: stroke; stroke: white; stroke-linecap: round; stroke-linejoin: round; opacity: 0;"><tspan x="0" y="0" dy="0" style="font-family: Arial, sans-serif; font-size: 10px; fill: black; font-weight: normal;">Dar es Salaam</tspan></text></g><g transform="translate(470.06511202145987,361.27084856934954)"><text text-anchor="middle" dominant-baseline="text-before-edge" transform="translate(0,-5.55224609375)" style="stroke-width: 2px; paint-order: stroke; stroke: white; stroke-linecap: round; stroke-linejoin: round; opacity: 0;"><tspan x="0" y="0" dy="0" style="font-family: Arial, sans-serif; font-size: 10px; fill: black; font-weight: normal;">Abidjan</tspan></text></g><g transform="translate(578.5517132348044,262.0101826288022)"><text text-anchor="middle" dominant-baseline="text-before-edge" transform="translate(0,-5.55224609375)" style="stroke-width: 2px; paint-order: stroke; stroke: white; stroke-linecap: round; stroke-linejoin: round; opacity: 0;"><tspan x="0" y="0" dy="0" style="font-family: Arial, sans-serif; font-size: 10px; fill: black; font-weight: normal;">Greater Johannesburg</tspan></text></g><g transform="translate(399.18869521722127,470.67706439418237)"><text text-anchor="middle" dominant-baseline="text-before-edge" transform="translate(0,-5.55224609375)" style="stroke-width: 2px; paint-order: stroke; stroke: white; stroke-linecap: round; stroke-linejoin: round; opacity: 1;"><tspan x="0" y="0" dy="0" style="font-family: Arial, sans-serif; font-size: 10px; fill: black; font-weight: normal;">Moscow</tspan></text></g><g transform="translate(441.3982760253612,470.67706439418237)"><text text-anchor="middle" dominant-baseline="text-before-edge" transform="translate(0,-5.55224609375)" style="stroke-width: 2px; paint-order: stroke; stroke: white; stroke-linecap: round; stroke-linejoin: round; opacity: 0;"><tspan x="0" y="0" dy="0" style="font-family: Arial, sans-serif; font-size: 10px; fill: black; font-weight: normal;">Saint Petersburg</tspan></text></g><g transform="translate(488.7265150947213,470.67706439418237)"><text text-anchor="middle" dominant-baseline="text-before-edge" transform="translate(0,-5.55224609375)" style="stroke-width: 2px; paint-order: stroke; stroke: white; stroke-linecap: round; stroke-linejoin: round; opacity: 1;"><tspan x="0" y="0" dy="0" style="font-family: Arial, sans-serif; font-size: 10px; fill: black; font-weight: normal;">Istanbul</tspan></text></g><g transform="translate(464.813450659434,516.7724872950291)"><text text-anchor="middle" dominant-baseline="text-before-edge" transform="translate(0,-5.55224609375)" style="stroke-width: 2px; paint-order: stroke; stroke: white; stroke-linecap: round; stroke-linejoin: round; opacity: 1;"><tspan x="0" y="0" dy="0" style="font-family: Arial, sans-serif; font-size: 10px; fill: black; font-weight: normal;">London</tspan></text></g><g transform="translate(463.2703219184643,434.1212675672363)"><text text-anchor="middle" dominant-baseline="text-before-edge" transform="translate(0,-5.55224609375)" style="stroke-width: 2px; paint-order: stroke; stroke: white; stroke-linecap: round; stroke-linejoin: round; opacity: 1;"><tspan x="0" y="0" dy="0" style="font-family: Arial, sans-serif; font-size: 10px; fill: black; font-weight: normal;">Berlin</tspan></text></g><g transform="translate(438.2940730676587,416.0580901430968)"><text text-anchor="middle" dominant-baseline="text-before-edge" transform="translate(0,-5.55224609375)" style="stroke-width: 2px; paint-order: stroke; stroke: white; stroke-linecap: round; stroke-linejoin: round; opacity: 1;"><tspan x="0" y="0" dy="0" style="font-family: Arial, sans-serif; font-size: 10px; fill: black; font-weight: normal;">Madrid</tspan></text></g><g transform="translate(428.75250367067196,527.7484572191556)"><text text-anchor="middle" dominant-baseline="text-before-edge" transform="translate(0,-5.55224609375)" style="stroke-width: 2px; paint-order: stroke; stroke: white; stroke-linecap: round; stroke-linejoin: round; opacity: 1;"><tspan x="0" y="0" dy="0" style="font-family: Arial, sans-serif; font-size: 10px; fill: black; font-weight: normal;">Kiev</tspan></text></g><g transform="translate(492.81165348803165,427.6653015117367)"><text text-anchor="middle" dominant-baseline="text-before-edge" transform="translate(0,-5.55224609375)" style="stroke-width: 2px; paint-order: stroke; stroke: white; stroke-linecap: round; stroke-linejoin: round; opacity: 1;"><tspan x="0" y="0" dy="0" style="font-family: Arial, sans-serif; font-size: 10px; fill: black; font-weight: normal;">Rome</tspan></text></g><g transform="translate(500.55473466500786,510.7915526331759)"><text text-anchor="middle" dominant-baseline="text-before-edge" transform="translate(0,-5.55224609375)" style="stroke-width: 2px; paint-order: stroke; stroke: white; stroke-linecap: round; stroke-linejoin: round; opacity: 1;"><tspan x="0" y="0" dy="0" style="font-family: Arial, sans-serif; font-size: 10px; fill: black; font-weight: normal;">Paris</tspan></text></g><g transform="translate(410.9380795021429,414.5917628962915)"><text text-anchor="middle" dominant-baseline="text-before-edge" transform="translate(0,-5.55224609375)" style="stroke-width: 2px; paint-order: stroke; stroke: white; stroke-linecap: round; stroke-linejoin: round; opacity: 0;"><tspan x="0" y="0" dy="0" style="font-family: Arial, sans-serif; font-size: 10px; fill: black; font-weight: normal;">Minsk</tspan></text></g><g transform="translate(407.223108153062,166.70666826081077)"><text text-anchor="middle" dominant-baseline="text-before-edge" transform="translate(0,-5.55224609375)" style="stroke-width: 2px; paint-order: stroke; stroke: white; stroke-linecap: round; stroke-linejoin: round; opacity: 1;"><tspan x="0" y="0" dy="0" style="font-family: Arial, sans-serif; font-size: 10px; fill: black; font-weight: normal;">São Paulo</tspan></text></g><g transform="translate(450.87734914402205,166.70666826081077)"><text text-anchor="middle" dominant-baseline="text-before-edge" transform="translate(0,-5.55224609375)" style="stroke-width: 2px; paint-order: stroke; stroke: white; stroke-linecap: round; stroke-linejoin: round; opacity: 0;"><tspan x="0" y="0" dy="0" style="font-family: Arial, sans-serif; font-size: 10px; fill: black; font-weight: normal;">Rio de Janeiro</tspan></text></g><g transform="translate(434.1138531098092,193.30116392519562)"><text text-anchor="middle" dominant-baseline="text-before-edge" transform="translate(0,-5.55224609375)" style="stroke-width: 2px; paint-order: stroke; stroke: white; stroke-linecap: round; stroke-linejoin: round; opacity: 1;"><tspan x="0" y="0" dy="0" style="font-family: Arial, sans-serif; font-size: 10px; fill: black; font-weight: normal;">Salvador</tspan></text></g><g transform="translate(434.11198382267827,140.12846405630955)"><text text-anchor="middle" dominant-baseline="text-before-edge" transform="translate(0,-5.55224609375)" style="stroke-width: 2px; paint-order: stroke; stroke: white; stroke-linecap: round; stroke-linejoin: round; opacity: 1;"><tspan x="0" y="0" dy="0" style="font-family: Arial, sans-serif; font-size: 10px; fill: black; font-weight: normal;">Brasília</tspan></text></g><g transform="translate(411.449254343124,129.8214521211289)"><text text-anchor="middle" dominant-baseline="text-before-edge" transform="translate(0,-5.55224609375)" style="stroke-width: 2px; paint-order: stroke; stroke: white; stroke-linecap: round; stroke-linejoin: round; opacity: 0;"><tspan x="0" y="0" dy="0" style="font-family: Arial, sans-serif; font-size: 10px; fill: black; font-weight: normal;">Fortaleza</tspan></text></g><g transform="translate(495.1751052543829,161.55641184293094)"><text text-anchor="middle" dominant-baseline="text-before-edge" transform="translate(0,-5.55224609375)" style="stroke-width: 2px; paint-order: stroke; stroke: white; stroke-linecap: round; stroke-linejoin: round; opacity: 1;"><tspan x="0" y="0" dy="0" style="font-family: Arial, sans-serif; font-size: 10px; fill: black; font-weight: normal;">Lima</tspan></text></g><g transform="translate(479.3561100731504,204.3459412456727)"><text text-anchor="middle" dominant-baseline="text-before-edge" transform="translate(0,-5.55224609375)" style="stroke-width: 2px; paint-order: stroke; stroke: white; stroke-linecap: round; stroke-linejoin: round; opacity: 1;"><tspan x="0" y="0" dy="0" style="font-family: Arial, sans-serif; font-size: 10px; fill: black; font-weight: normal;">Bogotá</tspan></text></g><g transform="translate(478.26101337221695,122.64492274975642)"><text text-anchor="middle" dominant-baseline="text-before-edge" transform="translate(0,-5.55224609375)" style="stroke-width: 2px; paint-order: stroke; stroke: white; stroke-linecap: round; stroke-linejoin: round; opacity: 1;"><tspan x="0" y="0" dy="0" style="font-family: Arial, sans-serif; font-size: 10px; fill: black; font-weight: normal;">Santiago</tspan></text></g><g transform="translate(449.5966537000026,103.8582034094837)"><text text-anchor="middle" dominant-baseline="text-before-edge" transform="translate(0,-5.55224609375)" style="stroke-width: 2px; paint-order: stroke; stroke: white; stroke-linecap: round; stroke-linejoin: round; opacity: 1;"><tspan x="0" y="0" dy="0" style="font-family: Arial, sans-serif; font-size: 10px; fill: black; font-weight: normal;">Caracas</tspan></text></g><g transform="translate(445.9493388146795,220.25572551710889)"><text text-anchor="middle" dominant-baseline="text-before-edge" transform="translate(0,-5.55224609375)" style="stroke-width: 2px; paint-order: stroke; stroke: white; stroke-linecap: round; stroke-linejoin: round; opacity: 1;"><tspan x="0" y="0" dy="0" style="font-family: Arial, sans-serif; font-size: 10px; fill: black; font-weight: normal;">Buenos Aires</tspan></text></g><g transform="translate(267.5185620747336,92.77889610964309)"><text text-anchor="middle" dominant-baseline="text-before-edge" transform="translate(0,-5.55224609375)" style="stroke-width: 2px; paint-order: stroke; stroke: white; stroke-linecap: round; stroke-linejoin: round; opacity: 1;"><tspan x="0" y="0" dy="0" style="font-family: Arial, sans-serif; font-size: 10px; fill: black; font-weight: normal;">New York City</tspan></text></g><g transform="translate(303.5834054124121,92.77889610964309)"><text text-anchor="middle" dominant-baseline="text-before-edge" transform="translate(0,-5.55224609375)" style="stroke-width: 2px; paint-order: stroke; stroke: white; stroke-linecap: round; stroke-linejoin: round; opacity: 0;"><tspan x="0" y="0" dy="0" style="font-family: Arial, sans-serif; font-size: 10px; fill: black; font-weight: normal;">Los Angeles</tspan></text></g><g transform="translate(291.0325867452715,116.8734773957511)"><text text-anchor="middle" dominant-baseline="text-before-edge" transform="translate(0,-5.55224609375)" style="stroke-width: 2px; paint-order: stroke; stroke: white; stroke-linecap: round; stroke-linejoin: round; opacity: 1;"><tspan x="0" y="0" dy="0" style="font-family: Arial, sans-serif; font-size: 10px; fill: black; font-weight: normal;">Chicago</tspan></text></g><g transform="translate(290.8639314236802,69.83738903295077)"><text text-anchor="middle" dominant-baseline="text-before-edge" transform="translate(0,-5.55224609375)" style="stroke-width: 2px; paint-order: stroke; stroke: white; stroke-linecap: round; stroke-linejoin: round; opacity: 1;"><tspan x="0" y="0" dy="0" style="font-family: Arial, sans-serif; font-size: 10px; fill: black; font-weight: normal;">Houston</tspan></text></g><g transform="translate(271.27136347842236,62.114880690743256)"><text text-anchor="middle" dominant-baseline="text-before-edge" transform="translate(0,-5.55224609375)" style="stroke-width: 2px; paint-order: stroke; stroke: white; stroke-linecap: round; stroke-linejoin: round; opacity: 0;"><tspan x="0" y="0" dy="0" style="font-family: Arial, sans-serif; font-size: 10px; fill: black; font-weight: normal;">Philadelphia</tspan></text></g><g transform="translate(346.932876991812,90.79885540100355)"><text text-anchor="middle" dominant-baseline="text-before-edge" transform="translate(0,-5.55224609375)" style="stroke-width: 2px; paint-order: stroke; stroke: white; stroke-linecap: round; stroke-linejoin: round; opacity: 1;"><tspan x="0" y="0" dy="0" style="font-family: Arial, sans-serif; font-size: 10px; fill: black; font-weight: normal;">Mexico City</tspan></text></g><g transform="translate(378.5626312862621,90.79885540100355)"><text text-anchor="middle" dominant-baseline="text-before-edge" transform="translate(0,-5.55224609375)" style="stroke-width: 2px; paint-order: stroke; stroke: white; stroke-linecap: round; stroke-linejoin: round; opacity: 0;"><tspan x="0" y="0" dy="0" style="font-family: Arial, sans-serif; font-size: 10px; fill: black; font-weight: normal;">Ecatepec de Morelos</tspan></text></g><g transform="translate(316.1148883186215,139.86827732991148)"><text text-anchor="middle" dominant-baseline="text-before-edge" transform="translate(0,-5.55224609375)" style="stroke-width: 2px; paint-order: stroke; stroke: white; stroke-linecap: round; stroke-linejoin: round; opacity: 1;"><tspan x="0" y="0" dy="0" style="font-family: Arial, sans-serif; font-size: 10px; fill: black; font-weight: normal;">Toronto</tspan></text></g><g transform="translate(338.8352542144477,139.86827732991148)"><text text-anchor="middle" dominant-baseline="text-before-edge" transform="translate(0,-5.55224609375)" style="stroke-width: 2px; paint-order: stroke; stroke: white; stroke-linecap: round; stroke-linejoin: round; opacity: 0;"><tspan x="0" y="0" dy="0" style="font-family: Arial, sans-serif; font-size: 10px; fill: black; font-weight: normal;">Montreal</tspan></text></g><g transform="translate(324.9111854562799,57.48650674356708)"><text text-anchor="middle" dominant-baseline="text-before-edge" transform="translate(0,-5.55224609375)" style="stroke-width: 2px; paint-order: stroke; stroke: white; stroke-linecap: round; stroke-linejoin: round; opacity: 1;"><tspan x="0" y="0" dy="0" style="font-family: Arial, sans-serif; font-size: 10px; fill: black; font-weight: normal;">Havana</tspan></text></g></g></g></svg>